<?xml version="1.0" encoding="utf-8"?>
<!-- Generator: Adobe Illustrator 19.0.0, SVG Export Plug-In . SVG Version: 6.00 Build 0)  -->
<svg version="1.1" id="Layer_1" xmlns="http://www.w3.org/2000/svg" xmlns:xlink="http://www.w3.org/1999/xlink" x="0px" y="0px"
	 viewBox="0 0 374.7 124.7" style="enable-background:new 0 0 374.7 124.7;" xml:space="preserve">
<style type="text/css">
	.st0{fill:url(#XMLID_69_);}
	.st1{fill:url(#XMLID_70_);}
	.st2{fill:url(#XMLID_71_);}
	.st3{fill:url(#XMLID_72_);}
	.st4{fill:url(#XMLID_73_);}
	.st5{fill:url(#XMLID_74_);}
	.st6{fill:url(#XMLID_75_);}
	.st7{fill:url(#XMLID_76_);}
	.st8{fill:url(#XMLID_77_);}
	.st9{fill:url(#XMLID_78_);}
	.st10{fill:url(#XMLID_79_);}
	.st11{fill:url(#XMLID_80_);}
	.st12{fill:url(#XMLID_81_);}
	.st13{clip-path:url(#XMLID_82_);fill:url(#XMLID_83_);}
</style>
<g id="XMLID_3_">
	<g id="XMLID_171_">
		
			<linearGradient id="XMLID_69_" gradientUnits="userSpaceOnUse" x1="14.5033" y1="-17.1486" x2="77.8754" y2="-17.1486" gradientTransform="matrix(1 0 0 -1 0 49.0909)">
			<stop  offset="0.6207" style="stop-color:#DCAB36"/>
			<stop  offset="1" style="stop-color:#806327"/>
		</linearGradient>
		<path id="XMLID_174_" class="st0" d="M26.8,96.2c-0.3,0-0.4-0.1-0.4-0.6c0-0.3,0-0.6,0-0.7c0-1.4,0.6-3.5,1.6-6.2
			c1.2-2.7,2.6-5.9,4.5-9.4c1.9-3.5,3.9-7.1,6.1-10.8c2.2-3.8,4.3-7.4,6.5-10.8s4.2-6.6,5.9-9.4s3.2-4.8,4-6.1
			c-2.2,0.1-4.8,0.3-8.1,0.4c-3.3,0.1-6.6,0.6-10.1,1c-3.5,0.6-6.6,1.3-9.5,2.3c-2.9,1-5.1,2.5-6.5,4.2c-0.3,0.3-0.6,0.7-0.9,1.2
			s-0.4,1-0.4,1.6c0,1,0.4,1.7,1.2,2.2c0.7,0.4,1.2,0.9,1.2,1.3c0,0.1-0.1,0.1-0.3,0.1c-0.1,0-0.3,0-0.4,0c-1.6,0-3-0.6-4.3-1.9
			c-1.3-1.3-2-2.7-2-4.2c0-0.4,0-0.7,0.1-1.2c0.1-0.4,0.1-0.7,0.3-1.2c1-2.5,2.9-4.5,5.6-6.1c2.7-1.4,5.9-2.6,9.4-3.3
			c3.5-0.7,6.9-1.3,10.4-1.4c3.5-0.3,6.3-0.3,8.7-0.3c1.6,0,3.3,0,4.9,0.1c1.6,0.1,3.3,0.1,4.9,0.3c0.7-0.7,1.9-1.2,3.2-1.2
			c0.3,0,0.6,0,1,0.1c0.3,0.1,0.4,0.4,0.4,0.7c0,0.1-0.1,0.4-0.3,0.7c0.7,0.1,2,0.3,3.6,0.6c1.6,0.3,3.2,0.7,4.9,1.3
			c1.7,0.6,3.2,1.3,4.3,2c1.2,0.9,1.7,1.7,1.7,2.9c0,0.3,0,0.6-0.1,1s-0.4,0.7-0.7,0.7c-0.1,0-0.1,0-0.1-0.1c0-0.1-0.1-0.1-0.1-0.3
			c-0.3-0.4-0.9-0.7-1.4-1c-0.7-0.3-1.3-0.4-1.9-0.7c-2-0.6-4.2-1.2-6.5-1.4c-2.3-0.3-4.5-0.6-6.6-0.6c-4.8,6.3-9.5,12.8-14,19.5
			S37.6,75.1,34,82.2c-1,2-2,4.2-3,6.3c-1,2.2-2,4.3-3,6.5c-0.1,0.1-0.3,0.4-0.4,0.7C27.2,96,27.1,96.2,26.8,96.2z"/>
		
			<linearGradient id="XMLID_70_" gradientUnits="userSpaceOnUse" x1="58.9489" y1="-15.9942" x2="108.9837" y2="-15.9942" gradientTransform="matrix(1 0 0 -1 0 49.0909)">
			<stop  offset="0.6207" style="stop-color:#DCAB36"/>
			<stop  offset="1" style="stop-color:#806327"/>
		</linearGradient>
		<path id="XMLID_172_" class="st1" d="M71.6,96.3c-2.9,0-5.2-0.7-7.1-2c-1.9-1.4-3.2-3.2-4-5.5c-0.9-2.3-1.4-4.6-1.6-7.2h0.9
			c0.6,2.7,1.7,5.1,3.6,7.1s4.2,3,7.1,3c2.2,0,4.2-0.7,5.8-2c1.6-1.3,2.9-3,3.8-5.1c0.9-2,1.3-4,1.3-5.9c0-2.7-0.6-5.1-1.7-7.1
			s-2.6-3.9-4-5.6c-1.6-1.7-2.9-3.5-4-5.2c-1.2-1.7-1.7-3.8-1.7-5.9c0-0.7,0.1-1.6,0.3-2.3c0.1-0.7,0.3-1.4,0.6-2.2
			c0.7-2.2,2.5-4.3,4.9-6.3c2.5-2,5.5-3.8,8.8-5.3c3.3-1.6,6.5-2.7,9.8-3.6c3.2-0.9,5.9-1.3,8.1-1.3c2.7,0,4.3,0.4,5.2,1.4
			c0.7,1,1.4,2.6,2,4.9c0.1,0.1,0,0.3-0.3,0.3c-0.3,0.1-0.6,0.1-0.7,0.1c-1.4,0.3-3.3,1-5.5,2c-2.3,1-4.3,2.2-6.2,3.6
			c-1.9,1.4-3,2.9-3.5,4.5l-1-0.1c0.4-2,1.4-3.9,2.9-5.8c1.6-1.9,3.2-3.5,4.9-4.6c-1.9,0.1-4,0.7-6.8,1.7s-5.5,2.3-8.2,3.9
			c-2.7,1.6-5.1,3.5-6.9,5.3c-1.9,2-2.7,4-2.7,6.2s0.6,4.2,1.7,6.1c1.2,1.9,2.5,3.8,3.9,5.8c1.4,2,2.7,4,3.9,6.2
			c1.2,2.2,1.7,4.6,1.7,7.2s-0.7,4.9-2,6.9c-1.4,2-3.2,3.6-5.3,4.9C76.6,95.8,74.1,96.3,71.6,96.3z"/>
	</g>
	<g id="XMLID_135_">
		
			<linearGradient id="XMLID_71_" gradientUnits="userSpaceOnUse" x1="99.7165" y1="-22.1942" x2="115.486" y2="-22.1942" gradientTransform="matrix(1 0 0 -1 0 49.0909)">
			<stop  offset="0.6207" style="stop-color:#DCAB36"/>
			<stop  offset="1" style="stop-color:#806327"/>
		</linearGradient>
		<path id="XMLID_161_" class="st2" d="M101.6,72.6c-0.4,0-0.8-0.1-1.3-0.2s-0.7-0.5-0.7-1c0-0.3,0.2-0.7,0.5-1
			c0.3-0.3,0.6-0.5,1-0.5h13.8c0.1,0,0.2,0,0.3,0s0.2,0.1,0.2,0.2c0,0.4-0.6,0.8-1.8,1.1c-1.2,0.3-2.6,0.6-4.3,0.8
			c-1.7,0.2-3.3,0.4-4.7,0.5C103.1,72.5,102.2,72.6,101.6,72.6z"/>
		
			<linearGradient id="XMLID_72_" gradientUnits="userSpaceOnUse" x1="117.8442" y1="-15.9942" x2="164.1442" y2="-15.9942" gradientTransform="matrix(1 0 0 -1 0 49.0909)">
			<stop  offset="0.6207" style="stop-color:#DCAB36"/>
			<stop  offset="1" style="stop-color:#806327"/>
		</linearGradient>
		<path id="XMLID_159_" class="st3" d="M136.4,88.5c-2.5,0-5.1-0.3-7.8-0.9c-2.7-0.6-5-1.8-6.9-3.6c-0.1-0.1-0.2-0.2-0.2-0.3
			c0-0.2,0.1-0.3,0.4-0.3l0.3,0.1c1.7,0.6,3.5,1,5.2,1.2c1.8,0.2,3.5,0.3,5.3,0.3c1.9,0,4.1-0.3,6.6-0.9s5-1.5,7.3-2.7
			c2.4-1.2,4.3-2.7,5.9-4.5c1.5-1.8,2.3-3.8,2.3-6.2c0-1.8-0.6-3.1-1.8-4s-2.6-1.5-4.2-1.8c-1.6-0.3-3.1-0.5-4.5-0.5
			c-1.5,0-3.2,0.2-5.2,0.5c-2,0.3-3.9,0.8-5.7,1.5c-1.8,0.7-3.3,1.7-4.3,2.9c-2,2.5-3.7,5.1-5.2,7.9s-3,5.6-4.7,8.3
			c-0.2,0.6-0.6,0.9-1,0.9c-0.3,0-0.4-0.2-0.4-0.5c0-0.2,0-0.4,0.1-0.4c0.5-1.5,1.1-3,1.8-4.5c0.8-1.5,1.5-2.9,2.3-4.2
			c0.3-0.5,0.8-1.5,1.7-2.9c0.8-1.4,1.8-3.1,3-5c1.1-1.9,2.4-3.9,3.6-5.9c1.3-2,2.5-3.9,3.6-5.7s2.1-3.2,3-4.3
			c0.8-1.1,1.4-1.6,1.6-1.6c0.3,0,0.8,0.1,1.4,0.3c0.7,0.2,1.3,0.4,1.9,0.7c0.6,0.3,1,0.5,1.2,0.7c-1.7,1.9-3.4,3.9-5.1,5.8
			c-1.7,1.9-3.4,3.8-5.1,5.8c2.7-0.3,5.5-0.9,8.4-1.8c2.9-0.8,5.6-1.8,8.1-2.9c0.9-0.4,1.9-1,3.1-1.7c1.2-0.7,2.4-1.5,3.6-2.5
			c1.2-0.9,2.2-1.9,3-3c0.8-1,1.2-2.1,1.2-3.2c0-1.1-0.4-1.9-1.3-2.4c-0.9-0.5-1.9-0.8-3-1c-1.1-0.1-2.1-0.2-2.9-0.2
			c-3.2,0-6.3,0.4-9.3,1.2s-6.1,1.7-9.1,2.7c-0.2,0.1-0.5,0.1-0.7,0.2c-0.2,0.1-0.5,0.1-0.7,0.1c-0.7,0-1.2-0.2-1.5-0.7
			s-0.5-1-0.5-1.6c0-1.4,0.6-2.4,1.8-2.9c0.4-0.2,0.8-0.3,1.2-0.4c0.4-0.1,0.8-0.2,1.2-0.2c2.7-0.7,5.5-1.3,8.4-1.9
			c2.8-0.6,5.6-0.9,8.4-0.9c1.5,0,3.2,0.2,5.1,0.6c1.9,0.4,3.5,1.1,4.8,2.1s2,2.5,2,4.5c0,1.8-0.7,3.5-2.1,5c-1.4,1.5-3.1,2.8-5.1,4
			c-2.1,1.1-4.1,2.1-6.1,2.9c-2,0.8-3.7,1.4-5.1,1.8c-1.4,0.4-2.1,0.6-2.1,0.7h0.3c0.5,0,0.9,0,1.4,0s1,0,1.4,0
			c1.4,0,2.9,0.1,4.5,0.4c1.6,0.3,3.2,0.7,4.6,1.3c1.5,0.6,2.7,1.5,3.6,2.6c0.9,1.1,1.4,2.6,1.4,4.3c0,1.2-0.2,2.4-0.7,3.5
			s-1,2.2-1.7,3.1c-1.6,2.3-3.6,4.2-6,5.7s-5,2.6-7.7,3.3C141.9,88.1,139.2,88.5,136.4,88.5z"/>
		
			<linearGradient id="XMLID_73_" gradientUnits="userSpaceOnUse" x1="163.5651" y1="-20.3942" x2="183.9615" y2="-20.3942" gradientTransform="matrix(1 0 0 -1 0 49.0909)">
			<stop  offset="0.6207" style="stop-color:#DCAB36"/>
			<stop  offset="1" style="stop-color:#806327"/>
		</linearGradient>
		<path id="XMLID_156_" class="st4" d="M167.3,85.6c-1.1,0-2-0.3-2.7-0.9s-1.1-1.5-1.1-2.6c0-0.9,0.3-2,0.9-3.5
			c0.6-1.5,1.3-3.1,2.1-4.8c0.9-1.7,1.7-3.3,2.5-4.8s1.5-2.6,2-3.3c0.5-0.7,1-1.5,1.5-2.2c0.6-0.7,1.3-1.1,2.3-1.1
			c0.3,0,0.8,0.1,1.6,0.3s1.5,0.5,2.2,0.8s1.1,0.6,1.1,1c-0.6,0.2-1.4,0.9-2.4,1.9c-1,1.1-2,2.3-3.1,3.7s-2.1,2.9-3,4.5
			c-0.9,1.5-1.7,3-2.3,4.3c-0.6,1.3-0.9,2.3-0.9,3c0,1,0.5,1.5,1.5,1.5c0.8,0,1.8-0.4,2.9-1.3c1.1-0.9,2.3-1.9,3.6-3.2
			c1.2-1.3,2.4-2.5,3.5-3.8c1.1-1.3,2-2.4,2.7-3.2c0.7-0.9,1.2-1.3,1.3-1.3c0.2,0,0.3,0.1,0.3,0.3c0,0.1-0.3,0.5-0.9,1.2
			c-0.6,0.7-1.3,1.5-2.2,2.5s-1.8,2-2.7,3s-1.8,1.9-2.4,2.6c-0.7,0.7-1.1,1.2-1.4,1.4c-0.9,0.9-2,1.7-3.2,2.6
			C169.9,85.2,168.6,85.6,167.3,85.6z M179.8,59.5c-0.6,0-1-0.2-1.4-0.6c-0.4-0.4-0.6-0.9-0.6-1.5c0-1,0.4-1.9,1.3-2.8
			c0.9-0.9,1.8-1.3,2.8-1.3c0.6,0,1,0.2,1.3,0.6c0.3,0.4,0.5,0.8,0.5,1.4c0,0.9-0.4,1.9-1.2,2.8S180.8,59.5,179.8,59.5z"/>
		
			<linearGradient id="XMLID_74_" gradientUnits="userSpaceOnUse" x1="179.933" y1="-20.8942" x2="206.7586" y2="-20.8942" gradientTransform="matrix(1 0 0 -1 0 49.0909)">
			<stop  offset="0.6207" style="stop-color:#DCAB36"/>
			<stop  offset="1" style="stop-color:#806327"/>
		</linearGradient>
		<path id="XMLID_154_" class="st5" d="M190.1,85.6c-1.1,0-2.1-0.3-2.8-1s-1.1-1.6-1.1-2.7s0.4-2.5,1.1-4.2c0.7-1.7,1.6-3.4,2.6-5.2
			c1-1.8,2.1-3.6,3.1-5.2c1-1.6,1.9-3,2.5-4c-0.4,0.2-0.9,0.3-1.5,0.3s-1.3-0.1-2-0.3c-0.7-0.2-1.3-0.4-2-0.6
			c-0.2,0.3-0.6,0.9-1.2,1.8c-0.7,0.9-1.4,2-2.3,3.3c-0.9,1.2-1.8,2.4-2.7,3.6c-0.9,1.1-1.7,2.1-2.4,2.9s-1.1,1.2-1.3,1.2
			s-0.3-0.1-0.3-0.3c0-0.1,0.1-0.3,0.3-0.4c0.6-0.8,1.3-1.6,1.9-2.3c0.7-0.7,1.3-1.5,1.9-2.3c1-1.2,1.9-2.5,2.7-3.8
			c0.9-1.3,1.6-2.7,2.3-4.1c-0.3-0.2-0.8-0.6-1.4-1c-0.6-0.5-0.9-0.9-0.9-1.4c0-0.6,0.4-1.2,1.1-1.8c0.7-0.6,1.6-1.1,2.5-1.6
			s1.6-0.8,2.1-1c0.2-0.1,0.8-0.3,1.6-0.6c0.8-0.4,1.3-0.6,1.3-0.6c0.2,0,0.3,0.1,0.3,0.3c0,0.1-0.4,0.4-1.1,1.1
			c-0.7,0.7-1.4,1.4-2.1,2.4c-0.7,0.9-1.1,1.8-1.1,2.7c0,0.8,0.3,1.4,1,1.7c0.7,0.3,1.4,0.5,2.1,0.5c0.6,0,1.1-0.1,1.5-0.3
			c0.2-0.3,0.4-0.4,0.7-0.4c0.5,0,1,0.1,1.7,0.2c0.7,0.1,1.3,0.4,1.9,0.7s0.9,0.8,0.9,1.3c0,0.4-0.1,0.8-0.3,1.2
			c-0.2,0.4-0.5,0.7-0.8,1c-0.6,0.7-1.4,1.7-2.5,3c-1.1,1.3-2.3,2.8-3.4,4.4c-1.2,1.6-2.2,3.1-3,4.5s-1.2,2.5-1.2,3.3
			c0,0.6,0.2,1,0.6,1.4c0.4,0.4,0.9,0.6,1.5,0.6c0.9,0,2-0.4,3.2-1.3s2.4-2,3.6-3.3s2.4-2.6,3.5-3.8c1.1-1.2,2-2.3,2.7-3.2
			s1.2-1.3,1.3-1.3c0.2,0,0.3,0.1,0.3,0.3c0,0.1-0.3,0.5-0.9,1.2c-0.6,0.7-1.3,1.5-2.2,2.5c-0.9,1-1.8,2-2.7,3
			c-0.9,1-1.8,1.9-2.4,2.6c-0.7,0.7-1.1,1.2-1.4,1.4c-0.9,0.9-2,1.7-3.2,2.6C192.7,85.2,191.4,85.6,190.1,85.6z"/>
		
			<linearGradient id="XMLID_75_" gradientUnits="userSpaceOnUse" x1="201.7871" y1="-23.1942" x2="231.0119" y2="-23.1942" gradientTransform="matrix(1 0 0 -1 0 49.0909)">
			<stop  offset="0.6207" style="stop-color:#DCAB36"/>
			<stop  offset="1" style="stop-color:#806327"/>
		</linearGradient>
		<path id="XMLID_151_" class="st6" d="M208.4,85.6c-1.7,0-3.2-0.5-4.6-1.5s-2.1-2.4-2.1-4.2c0-1.3,0.4-2.9,1.3-4.7
			c0.9-1.8,2-3.7,3.4-5.6c1.4-1.9,3-3.6,4.7-5.3c1.7-1.7,3.4-2.9,5.1-3.9s3.2-1.5,4.6-1.5c0.5,0,1,0.1,1.5,0.2
			c0.5,0.1,0.9,0.4,1.2,0.9c1.1-0.1,1.9,0.3,2.4,1s0.7,1.6,0.7,2.6c0,1.5-0.4,3.3-1.3,5.2s-1.9,3.8-3.1,5.6
			c-1.2,1.8-2.3,3.2-3.3,4.4l0.5,0.1c1.7,0.1,3.1-0.3,4.4-1s2.5-1.7,3.6-2.8s2.2-2.2,3.2-3.3l0.2-0.2c0.2,0,0.3,0.1,0.3,0.4
			c0,0.1,0,0.2-0.1,0.3c-0.8,1.1-1.8,2.3-3.1,3.5c-1.3,1.2-2.6,2.1-4.1,2.9s-3,1.2-4.5,1.2c-0.2,0-0.4,0-0.6,0s-0.4,0-0.6-0.1
			c-0.7,0.8-1.6,1.7-2.7,2.6c-1,0.9-2.1,1.7-3.3,2.4C210.8,85.3,209.6,85.6,208.4,85.6z M208.9,84.3c1.5,0,2.9-0.6,4.3-1.9
			s2.6-2.4,3.5-3.4c-0.3-0.2-0.8-0.5-1.3-0.9s-0.8-0.9-0.8-1.3c0-0.8,0.5-1.6,1.6-2.3c1.1-0.7,2.3-1.4,3.6-1.9
			c1.3-0.6,2.3-1,2.8-1.3c0.6-0.9,1.1-2,1.5-3.2c0.5-1.2,0.7-2.4,0.7-3.5c0-0.6-0.1-1.2-0.4-1.6c-0.3-0.5-0.8-0.7-1.5-0.7
			c-0.6,0-1.3,0.1-2,0.4c-0.7,0.3-1.3,0.6-1.8,0.9c-2.9,1.5-5.6,3.7-7.9,6.3c-2.4,2.7-4,5.7-4.9,8.9c-0.1,0.3-0.1,0.7-0.2,1.1
			S206,80.6,206,81c0,0.9,0.2,1.7,0.7,2.4C207.3,84,208,84.3,208.9,84.3z"/>
		
			<linearGradient id="XMLID_76_" gradientUnits="userSpaceOnUse" x1="242.4097" y1="-16.7234" x2="282.9473" y2="-16.7234" gradientTransform="matrix(1 0 0 -1 0 49.0909)">
			<stop  offset="0.6207" style="stop-color:#DCAB36"/>
			<stop  offset="1" style="stop-color:#806327"/>
		</linearGradient>
		<path id="XMLID_148_" class="st7" d="M260.5,85.6c-1,0-1.9-0.3-2.7-0.9c-0.8-0.6-1.2-1.4-1.2-2.5c0-0.7,0.2-1.6,0.6-2.7
			s0.8-2.2,1.3-3.2c0.5-1.1,0.9-1.9,1.2-2.5c-1.1,1.6-2.4,3.1-3.7,4.6c-1.3,1.5-2.8,2.9-4.2,4.2c-0.6,0.4-1.3,1-2.3,1.7
			c-0.9,0.7-1.8,1.1-2.5,1.1c-1.1,0-2.2-0.4-3.1-1.3s-1.4-1.9-1.4-3.1c0-0.8,0.2-1.5,0.5-2.2c0.9-1.9,2.2-3.9,3.8-6
			c1.6-2.1,3.5-4.1,5.5-6c2.1-1.9,4.2-3.7,6.3-5.2c2.2-1.5,4.2-2.7,6.2-3.4c0.3-0.1,0.6-0.2,0.9-0.2c0.6,0,1,0.3,1.2,0.9
			c0.3,0.6,0.5,1.1,0.7,1.5c1.1-1.7,2.2-3.3,3.3-4.9c1.1-1.6,2.2-3.2,3.3-4.8c0.5-0.7,1-1.5,1.6-2.4c0.5-0.8,1.1-1.6,1.7-2.2
			c0.1-0.1,0.1-0.2,0.3-0.1c0.1,0,0.2,0,0.3,0c0.2,0,0.8,0.1,1.6,0.3c0.8,0.2,1.6,0.4,2.4,0.6c0.7,0.2,1.1,0.4,1.1,0.6
			c0,0.1,0,0.1-0.1,0.2c-0.6,0.8-1.2,1.6-1.8,2.4c-0.6,0.8-1.3,1.6-1.9,2.4c-1.9,2.6-3.7,5.2-5.5,7.9s-3.6,5.4-5.4,8.1
			c-1.1,1.8-2.2,3.6-3.3,5.4c-1.1,1.8-2.1,3.7-3,5.7c-0.4,0.8-0.6,1.5-0.6,2.2c0,1,0.5,1.5,1.5,1.5c0.9,0,1.9-0.4,3-1.3
			s2.3-1.9,3.6-3.2c1.2-1.3,2.4-2.5,3.5-3.8c1.1-1.3,2-2.4,2.7-3.2c0.7-0.9,1.2-1.3,1.3-1.3c0.2,0,0.3,0.1,0.3,0.3
			c0,0.1-0.4,0.7-1.3,1.7s-1.9,2.2-3.1,3.5c-1.2,1.3-2.3,2.5-3.3,3.6c-1,1.1-1.6,1.7-1.9,2c-0.9,0.9-2,1.7-3.3,2.6
			C263.1,85.2,261.8,85.6,260.5,85.6z M246.7,83.2c0.5,0,1-0.1,1.5-0.4c0.6-0.3,1-0.5,1.4-0.7c1.4-0.8,2.9-1.9,4.4-3.2
			s3-2.8,4.3-4.3c1.4-1.5,2.5-3,3.3-4.3c0.8-1.2,1.6-2.4,2.3-3.7c0.7-1.3,1.4-2.5,2.2-3.7c-3.8,1.7-7.3,3.9-10.5,6.7
			c-3.2,2.8-5.9,6-8.1,9.6c-0.2,0.4-0.5,1-0.9,1.7s-0.6,1.3-0.6,1.8C246.1,83,246.3,83.2,246.7,83.2z"/>
		
			<linearGradient id="XMLID_77_" gradientUnits="userSpaceOnUse" x1="275.3185" y1="-34.6942" x2="282.0894" y2="-34.6942" gradientTransform="matrix(1 0 0 -1 0 49.0909)">
			<stop  offset="0.6207" style="stop-color:#DCAB36"/>
			<stop  offset="1" style="stop-color:#806327"/>
		</linearGradient>
		<path id="XMLID_146_" class="st8" d="M279.6,87.3c-0.3,0-0.9-0.2-1.5-0.5c-0.7-0.3-1.3-0.8-1.9-1.2c-0.6-0.5-0.9-0.9-0.9-1.3
			c0-0.5,0.4-1.1,1.2-1.7c0.8-0.6,1.7-1.2,2.6-1.7s1.6-0.7,2-0.7c0.2,0,0.4,0.1,0.6,0.2s0.3,0.3,0.3,0.6c0,0.2,0,0.3-0.1,0.3
			c-0.7,0.9-1.1,1.8-1.4,2.8c-0.1,0.2-0.1,0.6-0.1,1.2c0,0.5-0.1,1-0.2,1.5C280.2,87.1,280,87.3,279.6,87.3z"/>
		
			<linearGradient id="XMLID_78_" gradientUnits="userSpaceOnUse" x1="289.2871" y1="-23.1942" x2="318.5118" y2="-23.1942" gradientTransform="matrix(1 0 0 -1 0 49.0909)">
			<stop  offset="0.6207" style="stop-color:#DCAB36"/>
			<stop  offset="1" style="stop-color:#806327"/>
		</linearGradient>
		<path id="XMLID_143_" class="st9" d="M295.9,85.6c-1.7,0-3.2-0.5-4.6-1.5s-2.1-2.4-2.1-4.2c0-1.3,0.4-2.9,1.3-4.7
			c0.9-1.8,2-3.7,3.4-5.6c1.4-1.9,3-3.6,4.7-5.3c1.7-1.6,3.4-2.9,5.1-3.9s3.2-1.5,4.6-1.5c0.5,0,1,0.1,1.5,0.2
			c0.5,0.1,0.9,0.4,1.2,0.9c1.1-0.1,1.9,0.3,2.4,1s0.7,1.6,0.7,2.6c0,1.5-0.4,3.3-1.3,5.2s-1.9,3.8-3.1,5.6
			c-1.2,1.8-2.3,3.2-3.3,4.4l0.5,0.1c1.7,0.1,3.1-0.3,4.4-1s2.5-1.7,3.6-2.8s2.2-2.2,3.2-3.3l0.2-0.2c0.2,0,0.3,0.1,0.3,0.4
			c0,0.1,0,0.2-0.1,0.3c-0.8,1.1-1.8,2.3-3.1,3.5c-1.3,1.2-2.6,2.1-4.1,2.9s-3,1.2-4.5,1.2c-0.2,0-0.4,0-0.6,0s-0.4,0-0.6-0.1
			c-0.7,0.8-1.6,1.7-2.7,2.6c-1,0.9-2.1,1.7-3.3,2.4C298.3,85.3,297.1,85.6,295.9,85.6z M296.4,84.3c1.5,0,2.9-0.6,4.3-1.9
			s2.6-2.4,3.5-3.4c-0.3-0.2-0.8-0.5-1.3-0.9s-0.8-0.9-0.8-1.3c0-0.8,0.5-1.6,1.6-2.3c1.1-0.7,2.3-1.4,3.6-1.9
			c1.3-0.6,2.3-1,2.8-1.3c0.6-0.9,1.1-2,1.5-3.2c0.5-1.2,0.7-2.4,0.7-3.5c0-0.6-0.1-1.2-0.4-1.6c-0.3-0.5-0.8-0.7-1.5-0.7
			c-0.6,0-1.3,0.1-2,0.4c-0.7,0.3-1.3,0.6-1.8,0.9c-2.9,1.5-5.6,3.7-7.9,6.3c-2.4,2.7-4,5.7-4.9,8.9c-0.1,0.3-0.1,0.7-0.2,1.1
			s-0.1,0.7-0.1,1.1c0,0.9,0.2,1.7,0.7,2.4C294.8,84,295.5,84.3,296.4,84.3z"/>
		
			<linearGradient id="XMLID_79_" gradientUnits="userSpaceOnUse" x1="317.5689" y1="-34.6942" x2="324.3398" y2="-34.6942" gradientTransform="matrix(1 0 0 -1 0 49.0909)">
			<stop  offset="0.6207" style="stop-color:#DCAB36"/>
			<stop  offset="1" style="stop-color:#806327"/>
		</linearGradient>
		<path id="XMLID_141_" class="st10" d="M321.8,87.3c-0.3,0-0.9-0.2-1.5-0.5c-0.7-0.3-1.3-0.8-1.9-1.2c-0.6-0.5-0.9-0.9-0.9-1.3
			c0-0.5,0.4-1.1,1.2-1.7c0.8-0.6,1.7-1.2,2.6-1.7s1.6-0.7,2-0.7c0.2,0,0.4,0.1,0.6,0.2s0.3,0.3,0.3,0.6c0,0.2,0,0.3-0.1,0.3
			c-0.7,0.9-1.1,1.8-1.4,2.8c-0.1,0.2-0.1,0.6-0.1,1.2c0,0.5-0.1,1-0.2,1.5C322.5,87.1,322.2,87.3,321.8,87.3z"/>
		
			<linearGradient id="XMLID_80_" gradientUnits="userSpaceOnUse" x1="331.5441" y1="-23.1942" x2="360.7689" y2="-23.1942" gradientTransform="matrix(1 0 0 -1 0 49.0909)">
			<stop  offset="0.6207" style="stop-color:#DCAB36"/>
			<stop  offset="1" style="stop-color:#806327"/>
		</linearGradient>
		<path id="XMLID_138_" class="st11" d="M338.2,85.6c-1.7,0-3.2-0.5-4.6-1.5s-2.1-2.4-2.1-4.2c0-1.3,0.4-2.9,1.3-4.7
			c0.9-1.8,2-3.7,3.4-5.6c1.4-1.9,3-3.6,4.7-5.3c1.7-1.6,3.4-2.9,5.1-3.9s3.2-1.5,4.6-1.5c0.5,0,1,0.1,1.5,0.2
			c0.5,0.1,0.9,0.4,1.2,0.9c1.1-0.1,1.9,0.3,2.4,1s0.7,1.6,0.7,2.6c0,1.5-0.4,3.3-1.3,5.2s-1.9,3.8-3.1,5.6
			c-1.2,1.8-2.3,3.2-3.3,4.4l0.5,0.1c1.7,0.1,3.1-0.3,4.4-1s2.5-1.7,3.6-2.8s2.2-2.2,3.2-3.3l0.2-0.2c0.2,0,0.3,0.1,0.3,0.4
			c0,0.1,0,0.2-0.1,0.3c-0.8,1.1-1.8,2.3-3.1,3.5c-1.3,1.2-2.6,2.1-4.1,2.9s-3,1.2-4.5,1.2c-0.2,0-0.4,0-0.6,0s-0.4,0-0.6-0.1
			c-0.7,0.8-1.6,1.7-2.7,2.6c-1,0.9-2.1,1.7-3.3,2.4C340.6,85.3,339.4,85.6,338.2,85.6z M338.7,84.3c1.5,0,2.9-0.6,4.3-1.9
			s2.6-2.4,3.5-3.4c-0.3-0.2-0.8-0.5-1.3-0.9s-0.8-0.9-0.8-1.3c0-0.8,0.5-1.6,1.6-2.3c1.1-0.7,2.3-1.4,3.6-1.9
			c1.3-0.6,2.3-1,2.8-1.3c0.6-0.9,1.1-2,1.5-3.2c0.5-1.2,0.7-2.4,0.7-3.5c0-0.6-0.1-1.2-0.4-1.6c-0.3-0.5-0.8-0.7-1.5-0.7
			c-0.6,0-1.3,0.1-2,0.4c-0.7,0.3-1.3,0.6-1.8,0.9c-2.9,1.5-5.6,3.7-7.9,6.3c-2.4,2.7-4,5.7-4.9,8.9c-0.1,0.3-0.1,0.7-0.2,1.1
			s-0.1,0.7-0.1,1.1c0,0.9,0.2,1.7,0.7,2.4C337,84,337.7,84.3,338.7,84.3z"/>
		
			<linearGradient id="XMLID_81_" gradientUnits="userSpaceOnUse" x1="359.8195" y1="-34.6942" x2="366.5904" y2="-34.6942" gradientTransform="matrix(1 0 0 -1 0 49.0909)">
			<stop  offset="0.6207" style="stop-color:#DCAB36"/>
			<stop  offset="1" style="stop-color:#806327"/>
		</linearGradient>
		<path id="XMLID_136_" class="st12" d="M364.1,87.3c-0.3,0-0.9-0.2-1.5-0.5c-0.7-0.3-1.3-0.8-1.9-1.2c-0.6-0.5-0.9-0.9-0.9-1.3
			c0-0.5,0.4-1.1,1.2-1.7c0.8-0.6,1.7-1.2,2.6-1.7s1.6-0.7,2-0.7c0.2,0,0.4,0.1,0.6,0.2s0.3,0.3,0.3,0.6c0,0.2,0,0.3-0.1,0.3
			c-0.7,0.9-1.1,1.8-1.4,2.8c-0.1,0.2-0.1,0.6-0.1,1.2c0,0.5-0.1,1-0.2,1.5C364.7,87.1,364.5,87.3,364.1,87.3z"/>
	</g>
	<g id="XMLID_2_">
		<defs>
			<rect id="XMLID_1_" x="-41.7" y="-29.4" width="151.5" height="174.7"/>
		</defs>
		<clipPath id="XMLID_82_">
			<use xlink:href="#XMLID_1_"  style="overflow:visible;"/>
		</clipPath>
		
			<linearGradient id="XMLID_83_" gradientUnits="userSpaceOnUse" x1="5.5824" y1="-13.7469" x2="122.041" y2="-13.7469" gradientTransform="matrix(1 0 0 -1 0 49.0909)">
			<stop  offset="0.6207" style="stop-color:#DCAB36"/>
			<stop  offset="1" style="stop-color:#806327"/>
		</linearGradient>
		<path id="XMLID_168_" class="st13" d="M122,62.8C122,95,95.9,121,63.9,121S5.6,95,5.6,62.8S31.7,4.7,63.7,4.7S122,30.7,122,62.8z
			 M63.7,9C34,9,9.9,33.1,9.9,62.8s24.1,54,53.8,54s53.8-24.1,53.8-53.8S93.5,9,63.7,9z"/>
	</g>
</g>
</svg>
